<mxfile host="app.diagrams.net" modified="2023-12-02T11:00:59.088Z" agent="Mozilla/5.0 (Windows NT 10.0; Win64; x64) AppleWebKit/537.36 (KHTML, like Gecko) Chrome/119.0.0.0 Safari/537.36" etag="i53duvToNXI7gShPEJvf" version="22.1.5" type="device">
  <diagram name="Страница — 1" id="j3Kc3yo3Z4TMzRZnhTAF">
    <mxGraphModel dx="1493" dy="820" grid="1" gridSize="10" guides="1" tooltips="1" connect="1" arrows="1" fold="1" page="1" pageScale="1" pageWidth="1169" pageHeight="827" math="0" shadow="0">
      <root>
        <mxCell id="0" />
        <mxCell id="1" parent="0" />
        <mxCell id="oUfFj264ieUychREHrMQ-1" value="" style="rounded=0;whiteSpace=wrap;html=1;fillColor=#ffe6cc;strokeColor=#d79b00;strokeWidth=3;" vertex="1" parent="1">
          <mxGeometry x="694" y="1319.5" width="120" height="60" as="geometry" />
        </mxCell>
        <mxCell id="oUfFj264ieUychREHrMQ-3" value="" style="endArrow=classic;html=1;rounded=0;entryX=0;entryY=0.5;entryDx=0;entryDy=0;strokeWidth=3;" edge="1" parent="1" target="oUfFj264ieUychREHrMQ-1">
          <mxGeometry width="50" height="50" relative="1" as="geometry">
            <mxPoint x="570" y="1349.5" as="sourcePoint" />
            <mxPoint x="740" y="1296.5" as="targetPoint" />
          </mxGeometry>
        </mxCell>
        <mxCell id="oUfFj264ieUychREHrMQ-5" value="" style="endArrow=classic;html=1;rounded=0;exitX=1;exitY=0.5;exitDx=0;exitDy=0;strokeWidth=3;" edge="1" parent="1" source="oUfFj264ieUychREHrMQ-1">
          <mxGeometry width="50" height="50" relative="1" as="geometry">
            <mxPoint x="690" y="1346.5" as="sourcePoint" />
            <mxPoint x="920" y="1349.5" as="targetPoint" />
          </mxGeometry>
        </mxCell>
        <mxCell id="oUfFj264ieUychREHrMQ-6" value="Збут товару" style="text;html=1;strokeColor=none;fillColor=none;align=center;verticalAlign=middle;whiteSpace=wrap;rounded=0;strokeWidth=3;" vertex="1" parent="1">
          <mxGeometry x="724" y="1334.5" width="60" height="30" as="geometry" />
        </mxCell>
        <mxCell id="oUfFj264ieUychREHrMQ-7" value="Робітник" style="text;html=1;strokeColor=#d6b656;fillColor=#fff2cc;align=center;verticalAlign=middle;whiteSpace=wrap;rounded=0;strokeWidth=3;" vertex="1" parent="1">
          <mxGeometry x="754" y="1378" width="60" height="30" as="geometry" />
        </mxCell>
        <mxCell id="oUfFj264ieUychREHrMQ-8" value="Товар" style="text;html=1;strokeColor=#d6b656;fillColor=#fff2cc;align=center;verticalAlign=middle;whiteSpace=wrap;rounded=0;strokeWidth=3;" vertex="1" parent="1">
          <mxGeometry x="770" y="1289.5" width="60" height="30" as="geometry" />
        </mxCell>
        <mxCell id="oUfFj264ieUychREHrMQ-9" value="Шляхи збуту товару" style="text;html=1;strokeColor=none;fillColor=none;align=center;verticalAlign=middle;whiteSpace=wrap;rounded=0;strokeWidth=3;" vertex="1" parent="1">
          <mxGeometry x="510" y="1334.5" width="60" height="30" as="geometry" />
        </mxCell>
        <mxCell id="oUfFj264ieUychREHrMQ-10" value="Прибуток" style="text;html=1;strokeColor=#d6b656;fillColor=#fff2cc;align=center;verticalAlign=middle;whiteSpace=wrap;rounded=0;strokeWidth=3;" vertex="1" parent="1">
          <mxGeometry x="920" y="1334.5" width="60" height="32" as="geometry" />
        </mxCell>
        <mxCell id="oUfFj264ieUychREHrMQ-11" value="" style="rounded=0;whiteSpace=wrap;html=1;strokeWidth=3;" vertex="1" parent="1">
          <mxGeometry x="694" y="1209.5" width="120" height="60" as="geometry" />
        </mxCell>
        <mxCell id="oUfFj264ieUychREHrMQ-12" value="" style="endArrow=classic;html=1;rounded=0;strokeWidth=3;" edge="1" parent="1" target="oUfFj264ieUychREHrMQ-11">
          <mxGeometry width="50" height="50" relative="1" as="geometry">
            <mxPoint x="910" y="1239.5" as="sourcePoint" />
            <mxPoint x="929" y="1209.5" as="targetPoint" />
            <Array as="points" />
          </mxGeometry>
        </mxCell>
        <mxCell id="oUfFj264ieUychREHrMQ-13" value="" style="endArrow=classic;html=1;rounded=0;entryX=0;entryY=0.5;entryDx=0;entryDy=0;strokeWidth=3;" edge="1" parent="1" target="oUfFj264ieUychREHrMQ-11">
          <mxGeometry width="50" height="50" relative="1" as="geometry">
            <mxPoint x="590" y="1081.5" as="sourcePoint" />
            <mxPoint x="915" y="1093.25" as="targetPoint" />
            <Array as="points">
              <mxPoint x="650" y="1081.5" />
              <mxPoint x="650" y="1239.5" />
            </Array>
          </mxGeometry>
        </mxCell>
        <mxCell id="oUfFj264ieUychREHrMQ-18" value="Виготовлення товару" style="text;html=1;strokeColor=none;fillColor=none;align=center;verticalAlign=middle;whiteSpace=wrap;rounded=0;strokeWidth=3;" vertex="1" parent="1">
          <mxGeometry x="725" y="1224.5" width="65" height="27" as="geometry" />
        </mxCell>
        <mxCell id="oUfFj264ieUychREHrMQ-21" value="Сировина" style="text;html=1;strokeColor=none;fillColor=none;align=center;verticalAlign=middle;whiteSpace=wrap;rounded=0;strokeWidth=3;" vertex="1" parent="1">
          <mxGeometry x="530" y="1066.5" width="60" height="30" as="geometry" />
        </mxCell>
        <mxCell id="oUfFj264ieUychREHrMQ-22" value="Фабрика" style="text;html=1;strokeColor=none;fillColor=none;align=center;verticalAlign=middle;whiteSpace=wrap;rounded=0;strokeWidth=3;" vertex="1" parent="1">
          <mxGeometry x="910" y="1224.5" width="60" height="30" as="geometry" />
        </mxCell>
        <mxCell id="oUfFj264ieUychREHrMQ-24" value="" style="rounded=0;whiteSpace=wrap;html=1;strokeWidth=3;" vertex="1" parent="1">
          <mxGeometry x="473" y="1319.5" width="120" height="60" as="geometry" />
        </mxCell>
        <mxCell id="oUfFj264ieUychREHrMQ-25" value="" style="endArrow=classic;html=1;rounded=0;entryX=0.5;entryY=0;entryDx=0;entryDy=0;strokeWidth=3;" edge="1" parent="1" target="oUfFj264ieUychREHrMQ-24">
          <mxGeometry width="50" height="50" relative="1" as="geometry">
            <mxPoint x="533" y="1256.5" as="sourcePoint" />
            <mxPoint x="519" y="1296.5" as="targetPoint" />
          </mxGeometry>
        </mxCell>
        <mxCell id="oUfFj264ieUychREHrMQ-29" value="Знаходження шляхів збуту товару" style="text;html=1;strokeColor=none;fillColor=none;align=center;verticalAlign=middle;whiteSpace=wrap;rounded=0;strokeWidth=3;" vertex="1" parent="1">
          <mxGeometry x="503" y="1334.5" width="60" height="30" as="geometry" />
        </mxCell>
        <mxCell id="oUfFj264ieUychREHrMQ-32" value="Шляхи збуту товару" style="text;html=1;strokeColor=#d6b656;fillColor=#fff2cc;align=center;verticalAlign=middle;whiteSpace=wrap;rounded=0;strokeWidth=3;" vertex="1" parent="1">
          <mxGeometry x="620" y="1311.5" width="60" height="30" as="geometry" />
        </mxCell>
        <mxCell id="oUfFj264ieUychREHrMQ-36" value="" style="rounded=0;whiteSpace=wrap;html=1;strokeWidth=3;" vertex="1" parent="1">
          <mxGeometry x="90" y="1021.5" width="120" height="60" as="geometry" />
        </mxCell>
        <mxCell id="oUfFj264ieUychREHrMQ-38" value="" style="endArrow=none;html=1;rounded=0;exitX=0;exitY=0.5;exitDx=0;exitDy=0;entryX=1;entryY=0.5;entryDx=0;entryDy=0;strokeWidth=3;" edge="1" parent="1" source="oUfFj264ieUychREHrMQ-51" target="oUfFj264ieUychREHrMQ-42">
          <mxGeometry width="50" height="50" relative="1" as="geometry">
            <mxPoint x="410" y="1151.5" as="sourcePoint" />
            <mxPoint x="370" y="1111.5" as="targetPoint" />
            <Array as="points" />
          </mxGeometry>
        </mxCell>
        <mxCell id="oUfFj264ieUychREHrMQ-39" value="" style="endArrow=none;html=1;rounded=0;entryX=1;entryY=0.5;entryDx=0;entryDy=0;strokeWidth=3;" edge="1" parent="1" target="oUfFj264ieUychREHrMQ-43">
          <mxGeometry width="50" height="50" relative="1" as="geometry">
            <mxPoint x="410" y="1111.5" as="sourcePoint" />
            <mxPoint x="360" y="1161.5" as="targetPoint" />
            <Array as="points">
              <mxPoint x="410" y="1161.5" />
              <mxPoint x="410" y="1194.5" />
            </Array>
          </mxGeometry>
        </mxCell>
        <mxCell id="oUfFj264ieUychREHrMQ-40" value="" style="endArrow=none;html=1;rounded=0;exitX=0.5;exitY=0;exitDx=0;exitDy=0;strokeWidth=3;" edge="1" parent="1" source="oUfFj264ieUychREHrMQ-51">
          <mxGeometry width="50" height="50" relative="1" as="geometry">
            <mxPoint x="610" y="1211.5" as="sourcePoint" />
            <mxPoint x="410" y="1151.5" as="targetPoint" />
            <Array as="points">
              <mxPoint x="410" y="1051.5" />
            </Array>
          </mxGeometry>
        </mxCell>
        <mxCell id="oUfFj264ieUychREHrMQ-41" value="" style="endArrow=none;html=1;rounded=0;entryX=1;entryY=0.5;entryDx=0;entryDy=0;strokeWidth=3;" edge="1" parent="1" source="oUfFj264ieUychREHrMQ-54" target="oUfFj264ieUychREHrMQ-44">
          <mxGeometry width="50" height="50" relative="1" as="geometry">
            <mxPoint x="410" y="1161.5" as="sourcePoint" />
            <mxPoint x="360" y="1291.5" as="targetPoint" />
            <Array as="points">
              <mxPoint x="410" y="1269.5" />
            </Array>
          </mxGeometry>
        </mxCell>
        <mxCell id="oUfFj264ieUychREHrMQ-44" value="" style="rounded=0;whiteSpace=wrap;html=1;strokeWidth=3;" vertex="1" parent="1">
          <mxGeometry x="170" y="1239.5" width="120" height="60" as="geometry" />
        </mxCell>
        <mxCell id="oUfFj264ieUychREHrMQ-46" value="Виробник" style="text;html=1;strokeColor=none;fillColor=none;align=center;verticalAlign=middle;whiteSpace=wrap;rounded=0;strokeWidth=3;" vertex="1" parent="1">
          <mxGeometry x="120" y="1036.5" width="60" height="30" as="geometry" />
        </mxCell>
        <mxCell id="oUfFj264ieUychREHrMQ-49" value="Роздрібна мережа" style="text;html=1;strokeColor=none;fillColor=none;align=center;verticalAlign=middle;whiteSpace=wrap;rounded=0;strokeWidth=3;" vertex="1" parent="1">
          <mxGeometry x="200" y="1254.5" width="60" height="30" as="geometry" />
        </mxCell>
        <mxCell id="oUfFj264ieUychREHrMQ-42" value="" style="rounded=0;whiteSpace=wrap;html=1;strokeWidth=3;" vertex="1" parent="1">
          <mxGeometry x="110" y="1091.5" width="120" height="60" as="geometry" />
        </mxCell>
        <mxCell id="oUfFj264ieUychREHrMQ-47" value="Дистриб&#39;ютор" style="text;html=1;strokeColor=none;fillColor=none;align=center;verticalAlign=middle;whiteSpace=wrap;rounded=0;strokeWidth=3;" vertex="1" parent="1">
          <mxGeometry x="140" y="1106.5" width="60" height="30" as="geometry" />
        </mxCell>
        <mxCell id="oUfFj264ieUychREHrMQ-43" value="" style="rounded=0;whiteSpace=wrap;html=1;strokeWidth=3;" vertex="1" parent="1">
          <mxGeometry x="140" y="1164.5" width="120" height="60" as="geometry" />
        </mxCell>
        <mxCell id="oUfFj264ieUychREHrMQ-48" value="Дилер" style="text;html=1;strokeColor=none;fillColor=none;align=center;verticalAlign=middle;whiteSpace=wrap;rounded=0;strokeWidth=3;" vertex="1" parent="1">
          <mxGeometry x="170" y="1179.5" width="60" height="30" as="geometry" />
        </mxCell>
        <mxCell id="oUfFj264ieUychREHrMQ-52" value="" style="endArrow=none;html=1;rounded=0;exitX=1;exitY=0.5;exitDx=0;exitDy=0;strokeWidth=3;" edge="1" parent="1" source="oUfFj264ieUychREHrMQ-36">
          <mxGeometry width="50" height="50" relative="1" as="geometry">
            <mxPoint x="210" y="1051.5" as="sourcePoint" />
            <mxPoint x="410" y="1051.5" as="targetPoint" />
            <Array as="points" />
          </mxGeometry>
        </mxCell>
        <mxCell id="oUfFj264ieUychREHrMQ-53" value="" style="endArrow=none;html=1;rounded=0;exitX=0;exitY=0;exitDx=0;exitDy=0;exitPerimeter=0;entryX=1;entryY=0.5;entryDx=0;entryDy=0;strokeWidth=3;" edge="1" parent="1" target="oUfFj264ieUychREHrMQ-51">
          <mxGeometry width="50" height="50" relative="1" as="geometry">
            <mxPoint x="410" y="1151.5" as="sourcePoint" />
            <mxPoint x="230" y="1121.5" as="targetPoint" />
            <Array as="points">
              <mxPoint x="410" y="1121.5" />
            </Array>
          </mxGeometry>
        </mxCell>
        <mxCell id="oUfFj264ieUychREHrMQ-51" value="" style="rhombus;whiteSpace=wrap;html=1;strokeWidth=3;" vertex="1" parent="1">
          <mxGeometry x="373" y="1088.25" width="77" height="66.5" as="geometry" />
        </mxCell>
        <mxCell id="oUfFj264ieUychREHrMQ-55" value="" style="endArrow=none;html=1;rounded=0;entryX=1;entryY=0.5;entryDx=0;entryDy=0;strokeWidth=3;" edge="1" parent="1" target="oUfFj264ieUychREHrMQ-54">
          <mxGeometry width="50" height="50" relative="1" as="geometry">
            <mxPoint x="410" y="1161.5" as="sourcePoint" />
            <mxPoint x="290" y="1269.5" as="targetPoint" />
            <Array as="points" />
          </mxGeometry>
        </mxCell>
        <mxCell id="oUfFj264ieUychREHrMQ-54" value="" style="rhombus;whiteSpace=wrap;html=1;strokeWidth=3;" vertex="1" parent="1">
          <mxGeometry x="373" y="1161.25" width="70" height="66.5" as="geometry" />
        </mxCell>
        <mxCell id="oUfFj264ieUychREHrMQ-56" value="" style="endArrow=classic;html=1;rounded=0;exitX=0;exitY=0.5;exitDx=0;exitDy=0;entryX=0.5;entryY=1;entryDx=0;entryDy=0;strokeWidth=3;" edge="1" parent="1" source="oUfFj264ieUychREHrMQ-42" target="oUfFj264ieUychREHrMQ-51">
          <mxGeometry width="50" height="50" relative="1" as="geometry">
            <mxPoint x="420" y="1216.5" as="sourcePoint" />
            <mxPoint x="470" y="1166.5" as="targetPoint" />
            <Array as="points">
              <mxPoint x="90" y="1121.5" />
              <mxPoint x="90" y="1156.5" />
            </Array>
          </mxGeometry>
        </mxCell>
        <mxCell id="oUfFj264ieUychREHrMQ-57" value="" style="endArrow=classic;html=1;rounded=0;exitX=0;exitY=0.5;exitDx=0;exitDy=0;entryX=0.5;entryY=1;entryDx=0;entryDy=0;strokeWidth=3;" edge="1" parent="1" source="oUfFj264ieUychREHrMQ-43" target="oUfFj264ieUychREHrMQ-54">
          <mxGeometry width="50" height="50" relative="1" as="geometry">
            <mxPoint x="420" y="1216.5" as="sourcePoint" />
            <mxPoint x="410" y="1236.5" as="targetPoint" />
            <Array as="points">
              <mxPoint x="90" y="1194.5" />
              <mxPoint x="90" y="1227.5" />
            </Array>
          </mxGeometry>
        </mxCell>
        <mxCell id="oUfFj264ieUychREHrMQ-58" value="" style="endArrow=classic;html=1;rounded=0;entryX=1;entryY=0.5;entryDx=0;entryDy=0;strokeWidth=3;" edge="1" parent="1" target="oUfFj264ieUychREHrMQ-44">
          <mxGeometry width="50" height="50" relative="1" as="geometry">
            <mxPoint x="410" y="1269.5" as="sourcePoint" />
            <mxPoint x="470" y="1166.5" as="targetPoint" />
          </mxGeometry>
        </mxCell>
        <mxCell id="oUfFj264ieUychREHrMQ-59" value="" style="endArrow=classic;html=1;rounded=0;exitX=0;exitY=0.5;exitDx=0;exitDy=0;entryX=1;entryY=0.5;entryDx=0;entryDy=0;strokeWidth=3;" edge="1" parent="1" source="oUfFj264ieUychREHrMQ-54" target="oUfFj264ieUychREHrMQ-43">
          <mxGeometry width="50" height="50" relative="1" as="geometry">
            <mxPoint x="420" y="1216.5" as="sourcePoint" />
            <mxPoint x="470" y="1166.5" as="targetPoint" />
          </mxGeometry>
        </mxCell>
        <mxCell id="oUfFj264ieUychREHrMQ-60" value="" style="endArrow=classic;html=1;rounded=0;exitX=0;exitY=0.5;exitDx=0;exitDy=0;entryX=1;entryY=0.5;entryDx=0;entryDy=0;strokeWidth=3;" edge="1" parent="1" source="oUfFj264ieUychREHrMQ-51" target="oUfFj264ieUychREHrMQ-42">
          <mxGeometry width="50" height="50" relative="1" as="geometry">
            <mxPoint x="420" y="1216.5" as="sourcePoint" />
            <mxPoint x="470" y="1166.5" as="targetPoint" />
          </mxGeometry>
        </mxCell>
        <mxCell id="oUfFj264ieUychREHrMQ-62" value="&lt;font style=&quot;font-size: 8px;&quot;&gt;Потрібен Дистриб&#39;ютор?&lt;/font&gt;" style="text;html=1;strokeColor=none;fillColor=none;align=center;verticalAlign=middle;whiteSpace=wrap;rounded=0;strokeWidth=3;" vertex="1" parent="1">
          <mxGeometry x="381.5" y="1106.5" width="60" height="30" as="geometry" />
        </mxCell>
        <mxCell id="oUfFj264ieUychREHrMQ-63" value="&lt;font style=&quot;font-size: 8px;&quot;&gt;Потрібен Дилер?&lt;/font&gt;" style="text;html=1;strokeColor=none;fillColor=none;align=center;verticalAlign=middle;whiteSpace=wrap;rounded=0;strokeWidth=3;" vertex="1" parent="1">
          <mxGeometry x="378" y="1179.5" width="60" height="30" as="geometry" />
        </mxCell>
        <mxCell id="oUfFj264ieUychREHrMQ-64" value="Так" style="text;html=1;strokeColor=none;fillColor=none;align=center;verticalAlign=middle;whiteSpace=wrap;rounded=0;strokeWidth=3;" vertex="1" parent="1">
          <mxGeometry x="330" y="1166.5" width="60" height="30" as="geometry" />
        </mxCell>
        <mxCell id="oUfFj264ieUychREHrMQ-65" value="Так" style="text;html=1;strokeColor=none;fillColor=none;align=center;verticalAlign=middle;whiteSpace=wrap;rounded=0;strokeWidth=3;" vertex="1" parent="1">
          <mxGeometry x="340" y="1091.5" width="60" height="30" as="geometry" />
        </mxCell>
        <mxCell id="oUfFj264ieUychREHrMQ-66" value="" style="rounded=0;whiteSpace=wrap;html=1;strokeWidth=3;" vertex="1" parent="1">
          <mxGeometry x="170" y="1319.5" width="120" height="60" as="geometry" />
        </mxCell>
        <mxCell id="oUfFj264ieUychREHrMQ-67" value="" style="endArrow=classic;html=1;rounded=0;exitX=0.5;exitY=1;exitDx=0;exitDy=0;entryX=0.5;entryY=0;entryDx=0;entryDy=0;strokeWidth=3;" edge="1" parent="1" source="oUfFj264ieUychREHrMQ-44" target="oUfFj264ieUychREHrMQ-66">
          <mxGeometry width="50" height="50" relative="1" as="geometry">
            <mxPoint x="410" y="1251.5" as="sourcePoint" />
            <mxPoint x="460" y="1201.5" as="targetPoint" />
          </mxGeometry>
        </mxCell>
        <mxCell id="oUfFj264ieUychREHrMQ-68" value="" style="endArrow=classic;html=1;rounded=0;exitX=1;exitY=0.5;exitDx=0;exitDy=0;entryX=0;entryY=0.5;entryDx=0;entryDy=0;strokeWidth=3;" edge="1" parent="1" source="oUfFj264ieUychREHrMQ-66" target="oUfFj264ieUychREHrMQ-24">
          <mxGeometry width="50" height="50" relative="1" as="geometry">
            <mxPoint x="390" y="1251.5" as="sourcePoint" />
            <mxPoint x="410" y="1346.5" as="targetPoint" />
          </mxGeometry>
        </mxCell>
        <mxCell id="oUfFj264ieUychREHrMQ-69" value="Споживач" style="text;html=1;strokeColor=none;fillColor=none;align=center;verticalAlign=middle;whiteSpace=wrap;rounded=0;strokeWidth=3;" vertex="1" parent="1">
          <mxGeometry x="200" y="1334.5" width="60" height="30" as="geometry" />
        </mxCell>
        <mxCell id="oUfFj264ieUychREHrMQ-70" value="" style="rounded=0;whiteSpace=wrap;html=1;strokeWidth=3;" vertex="1" parent="1">
          <mxGeometry x="473" y="1101.25" width="120" height="60" as="geometry" />
        </mxCell>
        <mxCell id="oUfFj264ieUychREHrMQ-71" value="" style="rounded=0;whiteSpace=wrap;html=1;strokeWidth=3;" vertex="1" parent="1">
          <mxGeometry x="473" y="1194.5" width="120" height="60" as="geometry" />
        </mxCell>
        <mxCell id="oUfFj264ieUychREHrMQ-72" value="" style="endArrow=classic;html=1;rounded=0;exitX=0.5;exitY=1;exitDx=0;exitDy=0;entryX=0.5;entryY=0;entryDx=0;entryDy=0;strokeWidth=3;" edge="1" parent="1" source="oUfFj264ieUychREHrMQ-70" target="oUfFj264ieUychREHrMQ-71">
          <mxGeometry width="50" height="50" relative="1" as="geometry">
            <mxPoint x="430" y="1236.5" as="sourcePoint" />
            <mxPoint x="480" y="1186.5" as="targetPoint" />
          </mxGeometry>
        </mxCell>
        <mxCell id="oUfFj264ieUychREHrMQ-73" value="Виробник" style="text;html=1;strokeColor=none;fillColor=none;align=center;verticalAlign=middle;whiteSpace=wrap;rounded=0;strokeWidth=3;" vertex="1" parent="1">
          <mxGeometry x="503" y="1116.25" width="60" height="30" as="geometry" />
        </mxCell>
        <mxCell id="oUfFj264ieUychREHrMQ-74" value="Споживач" style="text;html=1;strokeColor=none;fillColor=none;align=center;verticalAlign=middle;whiteSpace=wrap;rounded=0;strokeWidth=3;" vertex="1" parent="1">
          <mxGeometry x="503" y="1209.5" width="60" height="30" as="geometry" />
        </mxCell>
        <mxCell id="oUfFj264ieUychREHrMQ-75" value="" style="rounded=0;whiteSpace=wrap;html=1;strokeWidth=3;" vertex="1" parent="1">
          <mxGeometry x="350" y="1582.5" width="120" height="60" as="geometry" />
        </mxCell>
        <mxCell id="oUfFj264ieUychREHrMQ-76" value="" style="rounded=0;whiteSpace=wrap;html=1;strokeWidth=3;" vertex="1" parent="1">
          <mxGeometry x="380" y="1511.5" width="120" height="60" as="geometry" />
        </mxCell>
        <mxCell id="oUfFj264ieUychREHrMQ-78" value="" style="rounded=0;whiteSpace=wrap;html=1;strokeWidth=3;" vertex="1" parent="1">
          <mxGeometry x="403" y="1441.5" width="120" height="60" as="geometry" />
        </mxCell>
        <mxCell id="oUfFj264ieUychREHrMQ-79" value="Виробник" style="text;html=1;strokeColor=none;fillColor=none;align=center;verticalAlign=middle;whiteSpace=wrap;rounded=0;strokeWidth=3;" vertex="1" parent="1">
          <mxGeometry x="378" y="1597.5" width="60" height="30" as="geometry" />
        </mxCell>
        <mxCell id="oUfFj264ieUychREHrMQ-80" value="Склад&lt;br&gt;магазин" style="text;html=1;strokeColor=none;fillColor=none;align=center;verticalAlign=middle;whiteSpace=wrap;rounded=0;strokeWidth=3;" vertex="1" parent="1">
          <mxGeometry x="410" y="1526.5" width="60" height="30" as="geometry" />
        </mxCell>
        <mxCell id="oUfFj264ieUychREHrMQ-81" value="Споживаач" style="text;html=1;strokeColor=none;fillColor=none;align=center;verticalAlign=middle;whiteSpace=wrap;rounded=0;strokeWidth=3;" vertex="1" parent="1">
          <mxGeometry x="433" y="1456.5" width="60" height="30" as="geometry" />
        </mxCell>
        <mxCell id="oUfFj264ieUychREHrMQ-82" value="" style="endArrow=classic;html=1;rounded=0;exitX=1;exitY=0.5;exitDx=0;exitDy=0;entryX=0.5;entryY=1;entryDx=0;entryDy=0;strokeWidth=3;" edge="1" parent="1" source="oUfFj264ieUychREHrMQ-78" target="oUfFj264ieUychREHrMQ-24">
          <mxGeometry width="50" height="50" relative="1" as="geometry">
            <mxPoint x="480" y="1541.5" as="sourcePoint" />
            <mxPoint x="530" y="1491.5" as="targetPoint" />
            <Array as="points">
              <mxPoint x="533" y="1471.5" />
            </Array>
          </mxGeometry>
        </mxCell>
        <mxCell id="oUfFj264ieUychREHrMQ-83" value="" style="endArrow=classic;html=1;rounded=0;exitX=1;exitY=0.5;exitDx=0;exitDy=0;entryX=1;entryY=0.75;entryDx=0;entryDy=0;strokeWidth=3;" edge="1" parent="1" source="oUfFj264ieUychREHrMQ-75" target="oUfFj264ieUychREHrMQ-76">
          <mxGeometry width="50" height="50" relative="1" as="geometry">
            <mxPoint x="480" y="1541.5" as="sourcePoint" />
            <mxPoint x="530" y="1491.5" as="targetPoint" />
            <Array as="points">
              <mxPoint x="540" y="1611.5" />
              <mxPoint x="540" y="1556.5" />
            </Array>
          </mxGeometry>
        </mxCell>
        <mxCell id="oUfFj264ieUychREHrMQ-84" value="" style="endArrow=classic;html=1;rounded=0;exitX=1;exitY=0.5;exitDx=0;exitDy=0;entryX=1;entryY=0.75;entryDx=0;entryDy=0;strokeWidth=3;" edge="1" parent="1" source="oUfFj264ieUychREHrMQ-76" target="oUfFj264ieUychREHrMQ-78">
          <mxGeometry width="50" height="50" relative="1" as="geometry">
            <mxPoint x="480" y="1541.5" as="sourcePoint" />
            <mxPoint x="530" y="1491.5" as="targetPoint" />
            <Array as="points">
              <mxPoint x="540" y="1541.5" />
              <mxPoint x="540" y="1486.5" />
            </Array>
          </mxGeometry>
        </mxCell>
        <mxCell id="oUfFj264ieUychREHrMQ-85" value="" style="rounded=0;whiteSpace=wrap;html=1;strokeWidth=3;" vertex="1" parent="1">
          <mxGeometry x="694" y="1021.5" width="120" height="60" as="geometry" />
        </mxCell>
        <mxCell id="oUfFj264ieUychREHrMQ-86" value="" style="endArrow=classic;html=1;rounded=0;entryX=0;entryY=0.5;entryDx=0;entryDy=0;exitX=0.5;exitY=1;exitDx=0;exitDy=0;strokeWidth=3;" edge="1" parent="1" source="oUfFj264ieUychREHrMQ-90" target="oUfFj264ieUychREHrMQ-85">
          <mxGeometry width="50" height="50" relative="1" as="geometry">
            <mxPoint x="614" y="1051.5" as="sourcePoint" />
            <mxPoint x="684" y="1111.5" as="targetPoint" />
            <Array as="points">
              <mxPoint x="569" y="1051.5" />
            </Array>
          </mxGeometry>
        </mxCell>
        <mxCell id="oUfFj264ieUychREHrMQ-87" value="" style="rounded=0;whiteSpace=wrap;html=1;strokeWidth=3;" vertex="1" parent="1">
          <mxGeometry x="615" y="946.5" width="120" height="60" as="geometry" />
        </mxCell>
        <mxCell id="oUfFj264ieUychREHrMQ-88" value="" style="rounded=0;whiteSpace=wrap;html=1;strokeWidth=3;" vertex="1" parent="1">
          <mxGeometry x="595" y="874" width="120" height="60" as="geometry" />
        </mxCell>
        <mxCell id="oUfFj264ieUychREHrMQ-89" value="" style="rounded=0;whiteSpace=wrap;html=1;strokeWidth=3;" vertex="1" parent="1">
          <mxGeometry x="580" y="800" width="120" height="60" as="geometry" />
        </mxCell>
        <mxCell id="oUfFj264ieUychREHrMQ-90" value="Кошти" style="text;html=1;strokeColor=none;fillColor=none;align=center;verticalAlign=middle;whiteSpace=wrap;rounded=0;strokeWidth=3;" vertex="1" parent="1">
          <mxGeometry x="539" y="961.5" width="60" height="30" as="geometry" />
        </mxCell>
        <mxCell id="oUfFj264ieUychREHrMQ-91" value="Знаходження Робітника" style="text;html=1;strokeColor=none;fillColor=none;align=center;verticalAlign=middle;whiteSpace=wrap;rounded=0;strokeWidth=3;" vertex="1" parent="1">
          <mxGeometry x="724" y="1036.5" width="60" height="30" as="geometry" />
        </mxCell>
        <mxCell id="oUfFj264ieUychREHrMQ-96" value="Відбір кандидатів" style="text;html=1;strokeColor=none;fillColor=none;align=center;verticalAlign=middle;whiteSpace=wrap;rounded=0;strokeWidth=3;" vertex="1" parent="1">
          <mxGeometry x="645" y="961.5" width="60" height="30" as="geometry" />
        </mxCell>
        <mxCell id="oUfFj264ieUychREHrMQ-97" value="Підготовка робочих місць" style="text;html=1;strokeColor=none;fillColor=none;align=center;verticalAlign=middle;whiteSpace=wrap;rounded=0;strokeWidth=3;" vertex="1" parent="1">
          <mxGeometry x="610" y="815" width="60" height="30" as="geometry" />
        </mxCell>
        <mxCell id="oUfFj264ieUychREHrMQ-98" value="Залучення на вакансію" style="text;html=1;strokeColor=none;fillColor=none;align=center;verticalAlign=middle;whiteSpace=wrap;rounded=0;strokeWidth=3;" vertex="1" parent="1">
          <mxGeometry x="620" y="889" width="70" height="30" as="geometry" />
        </mxCell>
        <mxCell id="oUfFj264ieUychREHrMQ-99" value="Робітник" style="text;html=1;strokeColor=none;fillColor=none;align=center;verticalAlign=middle;whiteSpace=wrap;rounded=0;strokeWidth=3;" vertex="1" parent="1">
          <mxGeometry x="760" y="1179.5" width="60" height="30" as="geometry" />
        </mxCell>
        <mxCell id="oUfFj264ieUychREHrMQ-100" value="" style="rounded=0;whiteSpace=wrap;html=1;strokeWidth=3;" vertex="1" parent="1">
          <mxGeometry x="620" y="1408" width="120" height="60" as="geometry" />
        </mxCell>
        <mxCell id="oUfFj264ieUychREHrMQ-101" value="" style="rounded=0;whiteSpace=wrap;html=1;strokeWidth=3;" vertex="1" parent="1">
          <mxGeometry x="590" y="1482" width="120" height="60" as="geometry" />
        </mxCell>
        <mxCell id="oUfFj264ieUychREHrMQ-102" value="" style="rounded=0;whiteSpace=wrap;html=1;strokeWidth=3;" vertex="1" parent="1">
          <mxGeometry x="550" y="1558" width="120" height="60" as="geometry" />
        </mxCell>
        <mxCell id="oUfFj264ieUychREHrMQ-103" value="" style="endArrow=classic;html=1;rounded=0;exitX=1;exitY=0.25;exitDx=0;exitDy=0;entryX=0.5;entryY=1;entryDx=0;entryDy=0;strokeWidth=3;" edge="1" parent="1" source="oUfFj264ieUychREHrMQ-100">
          <mxGeometry width="50" height="50" relative="1" as="geometry">
            <mxPoint x="680" y="1459" as="sourcePoint" />
            <mxPoint x="750" y="1379.5" as="targetPoint" />
            <Array as="points">
              <mxPoint x="750" y="1423" />
            </Array>
          </mxGeometry>
        </mxCell>
        <mxCell id="oUfFj264ieUychREHrMQ-104" value="" style="endArrow=classic;html=1;rounded=0;exitX=1;exitY=0.25;exitDx=0;exitDy=0;entryX=1;entryY=0.75;entryDx=0;entryDy=0;strokeWidth=3;" edge="1" parent="1" source="oUfFj264ieUychREHrMQ-101" target="oUfFj264ieUychREHrMQ-100">
          <mxGeometry width="50" height="50" relative="1" as="geometry">
            <mxPoint x="680" y="1459" as="sourcePoint" />
            <mxPoint x="770" y="1449" as="targetPoint" />
            <Array as="points">
              <mxPoint x="750" y="1497" />
              <mxPoint x="750" y="1453" />
            </Array>
          </mxGeometry>
        </mxCell>
        <mxCell id="oUfFj264ieUychREHrMQ-105" value="" style="endArrow=classic;html=1;rounded=0;exitX=1;exitY=0.25;exitDx=0;exitDy=0;entryX=1;entryY=0.75;entryDx=0;entryDy=0;strokeWidth=3;" edge="1" parent="1" source="oUfFj264ieUychREHrMQ-102" target="oUfFj264ieUychREHrMQ-101">
          <mxGeometry width="50" height="50" relative="1" as="geometry">
            <mxPoint x="680" y="1459" as="sourcePoint" />
            <mxPoint x="730" y="1409" as="targetPoint" />
            <Array as="points">
              <mxPoint x="750" y="1573" />
              <mxPoint x="750" y="1527" />
            </Array>
          </mxGeometry>
        </mxCell>
        <mxCell id="oUfFj264ieUychREHrMQ-106" value="Відбір кандидатів" style="text;html=1;strokeColor=none;fillColor=none;align=center;verticalAlign=middle;whiteSpace=wrap;rounded=0;strokeWidth=3;" vertex="1" parent="1">
          <mxGeometry x="650" y="1423" width="60" height="30" as="geometry" />
        </mxCell>
        <mxCell id="oUfFj264ieUychREHrMQ-107" value="Підготовка робочих місць" style="text;html=1;strokeColor=none;fillColor=none;align=center;verticalAlign=middle;whiteSpace=wrap;rounded=0;strokeWidth=3;" vertex="1" parent="1">
          <mxGeometry x="580" y="1573" width="50" height="27.5" as="geometry" />
        </mxCell>
        <mxCell id="oUfFj264ieUychREHrMQ-108" value="Залучення на вакансію" style="text;html=1;strokeColor=none;fillColor=none;align=center;verticalAlign=middle;whiteSpace=wrap;rounded=0;strokeWidth=3;" vertex="1" parent="1">
          <mxGeometry x="615" y="1497" width="70" height="30" as="geometry" />
        </mxCell>
        <mxCell id="oUfFj264ieUychREHrMQ-110" value="" style="endArrow=classic;html=1;rounded=0;exitX=0.5;exitY=1;exitDx=0;exitDy=0;entryX=0.5;entryY=0;entryDx=0;entryDy=0;strokeWidth=3;" edge="1" parent="1" source="oUfFj264ieUychREHrMQ-11" target="oUfFj264ieUychREHrMQ-1">
          <mxGeometry width="50" height="50" relative="1" as="geometry">
            <mxPoint x="750" y="1191.5" as="sourcePoint" />
            <mxPoint x="800" y="1141.5" as="targetPoint" />
          </mxGeometry>
        </mxCell>
        <mxCell id="oUfFj264ieUychREHrMQ-111" value="" style="endArrow=classic;html=1;rounded=0;exitX=0.5;exitY=1;exitDx=0;exitDy=0;entryX=0.5;entryY=0;entryDx=0;entryDy=0;strokeWidth=3;" edge="1" parent="1" source="oUfFj264ieUychREHrMQ-85" target="oUfFj264ieUychREHrMQ-11">
          <mxGeometry width="50" height="50" relative="1" as="geometry">
            <mxPoint x="600" y="1131.5" as="sourcePoint" />
            <mxPoint x="650" y="1081.5" as="targetPoint" />
          </mxGeometry>
        </mxCell>
        <mxCell id="oUfFj264ieUychREHrMQ-112" value="" style="endArrow=classic;html=1;rounded=0;exitX=1;exitY=0.75;exitDx=0;exitDy=0;entryX=1;entryY=0.25;entryDx=0;entryDy=0;strokeWidth=3;" edge="1" parent="1" source="oUfFj264ieUychREHrMQ-89" target="oUfFj264ieUychREHrMQ-88">
          <mxGeometry width="50" height="50" relative="1" as="geometry">
            <mxPoint x="841" y="930" as="sourcePoint" />
            <mxPoint x="791" y="870" as="targetPoint" />
            <Array as="points">
              <mxPoint x="801" y="845" />
              <mxPoint x="801" y="889" />
            </Array>
          </mxGeometry>
        </mxCell>
        <mxCell id="oUfFj264ieUychREHrMQ-114" value="" style="endArrow=classic;html=1;rounded=0;exitX=1;exitY=0.75;exitDx=0;exitDy=0;entryX=1;entryY=0.25;entryDx=0;entryDy=0;strokeWidth=3;" edge="1" parent="1" source="oUfFj264ieUychREHrMQ-88" target="oUfFj264ieUychREHrMQ-87">
          <mxGeometry width="50" height="50" relative="1" as="geometry">
            <mxPoint x="1051" y="1100" as="sourcePoint" />
            <mxPoint x="1101" y="1050" as="targetPoint" />
            <Array as="points">
              <mxPoint x="791" y="920" />
              <mxPoint x="791" y="961" />
            </Array>
          </mxGeometry>
        </mxCell>
        <mxCell id="oUfFj264ieUychREHrMQ-115" value="" style="endArrow=classic;html=1;rounded=0;exitX=1;exitY=0.75;exitDx=0;exitDy=0;entryX=0.5;entryY=0;entryDx=0;entryDy=0;strokeWidth=3;" edge="1" parent="1" source="oUfFj264ieUychREHrMQ-87" target="oUfFj264ieUychREHrMQ-85">
          <mxGeometry width="50" height="50" relative="1" as="geometry">
            <mxPoint x="910" y="1110" as="sourcePoint" />
            <mxPoint x="960" y="1060" as="targetPoint" />
            <Array as="points">
              <mxPoint x="754" y="992" />
            </Array>
          </mxGeometry>
        </mxCell>
      </root>
    </mxGraphModel>
  </diagram>
</mxfile>
